<svg id="kity_svg_6" xmlns="http://www.w3.org/2000/svg" xmlns:xlink="http://www.w3.org/1999/xlink" version="1.1" width="927" height="547" style="background: rgb(251, 251, 251); visibility: visible;" viewBox="0 0 927 547"><defs id="kity_defs_7"><linearGradient id="kity_linearGradient_17" x1="0" y1="0" x2="0" y2="1"><stop id="kity_stop_18" offset="0" stop-color="rgb(255, 255, 255)"></stop><stop id="kity_stop_19" offset="1" stop-color="rgb(204, 204, 204)"></stop></linearGradient><marker id="kity_marker_2" orient="auto" refX="6" refY="0" viewBox="-7 -7 14 14" markerWidth="7" markerHeight="7" markerUnits="userSpaceOnUse"><path id="kity_path_3" fill="rgb(115, 161, 191)" stroke="none" d="M6,0A6,6,0,1,1,-6,0A6,6,0,1,1,6,0"></path></marker></defs><g id="kity_g_8"><g id="minder1" text-rendering="optimize-speed"><g id="minder_connect_group1"><path id="kity_path_31" fill="none" stroke="rgb(115, 161, 191)" stroke-width="1" d="M85.5,277.5A179,116,0,0,1,264.5,161.5"></path><path id="kity_path_33" fill="none" stroke="rgb(115, 161, 191)" stroke-width="1" d="M363.5,161.5C378.5,161.5,378.5,45.5,393.5,45.5L481.5,45.5"></path><path id="kity_path_35" fill="none" stroke="rgb(115, 161, 191)" stroke-width="1" d="M363.5,161.5C378.5,161.5,378.5,97.5,393.5,97.5L508.5,97.5"></path><path id="kity_path_37" fill="none" stroke="rgb(115, 161, 191)" stroke-width="1" d="M363.5,161.5C378.5,161.5,378.5,149.5,393.5,149.5L497.5,149.5"></path><path id="kity_path_39" fill="none" stroke="rgb(115, 161, 191)" stroke-width="1" d="M363.5,161.5C378.5,161.5,378.5,201.5,393.5,201.5L508.5,201.5"></path><path id="kity_path_41" fill="none" stroke="rgb(115, 161, 191)" stroke-width="1" d="M363.5,161.5C375.5,161.5,375.5,301.5,387.5,301.5L622.5,301.5"></path><path id="kity_path_43" fill="none" stroke="rgb(115, 161, 191)" stroke-width="1" d="M363.5,161.5C381.5,161.5,381.5,249.5,399.5,249.5L454.5,249.5"></path><path id="kity_path_45" fill="none" stroke="rgb(115, 161, 191)" stroke-width="1" d="M85.5,277.5A187,152,0,0,0,272.5,429.5"></path><path id="kity_path_47" fill="none" stroke="rgb(115, 161, 191)" stroke-width="1" d="M372.5,429.5C376.5,429.5,376.5,334.5,380.5,334.5L728.5,334.5"></path><path id="kity_path_49" fill="none" stroke="rgb(115, 161, 191)" stroke-width="1" d="M372.5,429.5C381,429.5,381,403.5,389.5,403.5L785.5,403.5"></path><path id="kity_path_51" fill="none" stroke="rgb(115, 161, 191)" stroke-width="1" d="M372.5,429.5C380,429.5,380,466.5,387.5,466.5L621.5,466.5"></path><path id="kity_path_53" fill="none" stroke="rgb(115, 161, 191)" stroke-width="1" d="M372.5,429.5C377.5,429.5,377.5,527.5,382.5,527.5L907.5,527.5"></path></g><g id="minder_node1"><path id="node_outline1" fill="rgb(115, 161, 191)" stroke="rgb(115, 161, 191)" d="M25.5,257.5h120a5,5,0,0,1,5,5v30a5,5,0,0,1,-5,5h-120a5,5,0,0,1,-5,-5v-30a5,5,0,0,1,5,-5z" stroke-width="3"></path><g id="node_text1" fill="white"><text id="kity_text_22" text-rendering="inherit" font-size="16" dy=".8em" y="267.09999990463257" x="44.5">第一次会议</text></g></g><g id="kity_g_12"><path id="kity_path_13" fill="none" stroke="none" d="M44.5,277.5h0v0h0z"></path></g><g id="kity_g_14"><path id="kity_path_15" fill="none" stroke="none" d="M44.5,277.5h0v0h0z"></path><path id="kity_path_16" fill="none" stroke="none"></path></g><g id="minder_node2"><g id="node_expander7" style="cursor: pointer;"><path id="kity_path_109" fill="white" stroke="gray" d="M265.5,161.5A6,6,0,1,1,253.5,161.5A6,6,0,1,1,265.5,161.5"></path><path id="kity_path_110" fill="none" stroke="gray" d="M255,161.5L264,161.5"></path></g><path id="node_outline8" fill="rgb(238, 243, 246)" stroke="rgb(115, 161, 191)" d="M269.5,148.5h91a3,3,0,0,1,3,3v20a3,3,0,0,1,-3,3h-91a3,3,0,0,1,-3,-3v-20a3,3,0,0,1,3,-3z" stroke-width="1"></path><g id="node_text8" fill="black"><text id="kity_text_67" text-rendering="inherit" font-size="14" dy=".8em" y="152.40000009536743" x="286.5">产品功能</text></g></g><g id="minder_node3"><g id="node_expander1" display="none" style="cursor: pointer;"><path id="kity_path_91" fill="white" stroke="gray" d="M403.5,31.5A6,6,0,1,1,391.5,31.5A6,6,0,1,1,403.5,31.5"></path><path id="kity_path_92" fill="none" stroke="gray"></path></g><path id="node_outline2" fill="none" stroke="none" d="M408.5,20.5h68a5,5,0,0,1,5,5v12a5,5,0,0,1,-5,5h-68a5,5,0,0,1,-5,-5v-12a5,5,0,0,1,5,-5z"></path><g id="node_text2" fill="black"><text id="kity_text_55" text-rendering="inherit" font-size="12" dy=".8em" y="23.700000047683716" x="413.5">paper检索</text></g></g><g id="minder_node4"><g id="node_expander2" display="none" style="cursor: pointer;"><path id="kity_path_94" fill="white" stroke="gray" d="M403.5,83.5A6,6,0,1,1,391.5,83.5A6,6,0,1,1,403.5,83.5"></path><path id="kity_path_95" fill="none" stroke="gray"></path></g><path id="node_outline3" fill="none" stroke="none" d="M408.5,72.5h95a5,5,0,0,1,5,5v12a5,5,0,0,1,-5,5h-95a5,5,0,0,1,-5,-5v-12a5,5,0,0,1,5,-5z"></path><g id="node_text3" fill="black"><text id="kity_text_57" text-rendering="inherit" font-size="12" dy=".8em" y="75.70000004768372" x="413.5">定制化搜索功能</text></g></g><g id="minder_node5"><g id="node_expander3" display="none" style="cursor: pointer;"><path id="kity_path_97" fill="white" stroke="gray" d="M403.5,135.5A6,6,0,1,1,391.5,135.5A6,6,0,1,1,403.5,135.5"></path><path id="kity_path_98" fill="none" stroke="gray"></path></g><path id="node_outline4" fill="none" stroke="none" d="M408.5,124.5h84a5,5,0,0,1,5,5v12a5,5,0,0,1,-5,5h-84a5,5,0,0,1,-5,-5v-12a5,5,0,0,1,5,-5z"></path><g id="node_text4" fill="black"><text id="kity_text_59" text-rendering="inherit" font-size="12" dy=".8em" y="127.70000004768372" x="413.5">文件权限管理</text></g></g><g id="minder_node6"><g id="node_expander4" display="none" style="cursor: pointer;"><path id="kity_path_100" fill="white" stroke="gray" d="M403.5,187.5A6,6,0,1,1,391.5,187.5A6,6,0,1,1,403.5,187.5"></path><path id="kity_path_101" fill="none" stroke="gray"></path></g><path id="node_outline5" fill="none" stroke="none" d="M408.5,176.5h95a5,5,0,0,1,5,5v12a5,5,0,0,1,-5,5h-95a5,5,0,0,1,-5,-5v-12a5,5,0,0,1,5,-5z"></path><g id="node_text5" fill="black"><text id="kity_text_61" text-rendering="inherit" font-size="12" dy=".8em" y="179.70000004768372" x="413.5">个性化搜索排名</text></g></g><g id="minder_node7"><g id="node_expander5" display="none" style="cursor: pointer;"><path id="kity_path_103" fill="white" stroke="gray" d="M397.5,287.5A6,6,0,1,1,385.5,287.5A6,6,0,1,1,397.5,287.5"></path><path id="kity_path_104" fill="none" stroke="gray"></path></g><path id="node_outline6" fill="none" stroke="none" d="M402.5,276.5h215a5,5,0,0,1,5,5v12a5,5,0,0,1,-5,5h-215a5,5,0,0,1,-5,-5v-12a5,5,0,0,1,5,-5z"></path><g id="node_text6" fill="black"><text id="kity_text_63" text-rendering="inherit" font-size="12" dy=".8em" y="279.7000000476837" x="407.5">paper 讨论区（感觉该功能有点偏离）</text></g></g><g id="minder_node8"><g id="node_expander6" display="none" style="cursor: pointer;"><path id="kity_path_106" fill="white" stroke="gray" d="M409.5,235.5A6,6,0,1,1,397.5,235.5A6,6,0,1,1,409.5,235.5"></path><path id="kity_path_107" fill="none" stroke="gray"></path></g><path id="node_outline7" fill="none" stroke="none" d="M414.5,224.5h35a5,5,0,0,1,5,5v12a5,5,0,0,1,-5,5h-35a5,5,0,0,1,-5,-5v-12a5,5,0,0,1,5,-5z"></path><g id="node_text7" fill="black"><text id="kity_text_65" text-rendering="inherit" font-size="12" dy=".8em" y="227.70000004768372" x="419.5">分词</text></g></g><g id="minder_node9"><g id="node_expander12" style="cursor: pointer;"><path id="kity_path_124" fill="white" stroke="gray" d="M385.5,429.5A6,6,0,1,1,373.5,429.5A6,6,0,1,1,385.5,429.5"></path><path id="kity_path_125" fill="none" stroke="gray" d="M375,429.5L384,429.5"></path></g><path id="node_outline13" fill="rgb(238, 243, 246)" stroke="rgb(115, 161, 191)" d="M277.5,416.5h92a3,3,0,0,1,3,3v20a3,3,0,0,1,-3,3h-92a3,3,0,0,1,-3,-3v-20a3,3,0,0,1,3,-3z" stroke-width="1"></path><g id="node_text13" fill="black"><text id="kity_text_77" text-rendering="inherit" font-size="14" dy=".8em" y="420.40000009536743" x="294.5">技术路线</text></g></g><g id="minder_node10"><g id="node_expander8" display="none" style="cursor: pointer;"><path id="kity_path_112" fill="white" stroke="gray" d="M740.5,320.5A6,6,0,1,1,728.5,320.5A6,6,0,1,1,740.5,320.5"></path><path id="kity_path_113" fill="none" stroke="gray"></path></g><path id="node_outline9" fill="none" stroke="none" d="M395.5,309.5h328a5,5,0,0,1,5,5v12a5,5,0,0,1,-5,5h-328a5,5,0,0,1,-5,-5v-12a5,5,0,0,1,5,-5z"></path><g id="node_text9" fill="black"><text id="kity_text_69" text-rendering="inherit" font-size="12" dy=".8em" y="312.7000000476837" x="400.5">后端服务框架SpringMVC，使用者比较多，解决方案比较多</text></g></g><g id="minder_node11"><g id="node_expander9" display="none" style="cursor: pointer;"><path id="kity_path_115" fill="white" stroke="gray" d="M797.5,389.5A6,6,0,1,1,785.5,389.5A6,6,0,1,1,797.5,389.5"></path><path id="kity_path_116" fill="none" stroke="gray"></path></g><path id="node_outline10" fill="none" stroke="none" d="M404.5,378.5h376a5,5,0,0,1,5,5v12a5,5,0,0,1,-5,5h-376a5,5,0,0,1,-5,-5v-12a5,5,0,0,1,5,-5z"></path><g id="node_text10" fill="black"><text id="kity_text_71" text-rendering="inherit" font-size="12" dy=".8em" y="381.7000000476837" x="409.5">SpringBoot，当前比较火的服务框架，配置简单，但据说不是很稳定</text></g></g><g id="minder_node12"><g id="node_expander10" display="none" style="cursor: pointer;"><path id="kity_path_118" fill="white" stroke="gray" d="M633.5,452.5A6,6,0,1,1,621.5,452.5A6,6,0,1,1,633.5,452.5"></path><path id="kity_path_119" fill="none" stroke="gray"></path></g><path id="node_outline11" fill="none" stroke="none" d="M402.5,441.5h214a5,5,0,0,1,5,5v12a5,5,0,0,1,-5,5h-214a5,5,0,0,1,-5,-5v-12a5,5,0,0,1,5,-5z"></path><g id="node_text11" fill="black"><text id="kity_text_73" text-rendering="inherit" font-size="12" dy=".8em" y="444.7000000476837" x="407.5">前端架构bootstrap+JSP，技术比较旧</text></g></g><g id="minder_node13"><g id="node_expander11" display="none" style="cursor: pointer;"><path id="kity_path_121" fill="white" stroke="gray" d="M919.5,513.5A6,6,0,1,1,907.5,513.5A6,6,0,1,1,919.5,513.5"></path><path id="kity_path_122" fill="none" stroke="gray"></path></g><path id="node_outline12" fill="none" stroke="none" d="M397.5,502.5h505a5,5,0,0,1,5,5v12a5,5,0,0,1,-5,5h-505a5,5,0,0,1,-5,-5v-12a5,5,0,0,1,5,-5z"></path><g id="node_text12" fill="black"><text id="kity_text_75" text-rendering="inherit" font-size="12" dy=".8em" y="505.7000000476837" x="402.5">reactjs+antdesign前端框架，或者vue.js技术比较新，目前主流前端框架，可实现前后端分离</text></g></g></g></g></svg>